<svg version="1.1" xmlns="http://www.w3.org/2000/svg" xmlns:xlink="http://www.w3.org/1999/xlink" width="548.1628" height="1915.48232" viewBox="0,0,548.1628,1915.48232"><g transform="translate(96.34806,637.74116)"><g data-paper-data="{&quot;isPaintingLayer&quot;:true}" fill="#9966ff" fill-rule="nonzero" stroke="none" stroke-width="0" stroke-linecap="butt" stroke-linejoin="miter" stroke-miterlimit="10" stroke-dasharray="" stroke-dashoffset="0" style="mix-blend-mode: normal"><path d="M-86.75316,641.99793v-161.03787h271.81113v161.03787z" data-paper-data="{&quot;index&quot;:null}"/><path d="M180.02522,480.69943v-161.03787h264.36069v161.03787z" data-paper-data="{&quot;index&quot;:null}"/><path d="M-96.34806,319.3631v-161.03787h276.37271v161.03787z" data-paper-data="{&quot;index&quot;:null}"/><path d="M180.09188,158.43276v-161.03787h269.34568v161.03787z" data-paper-data="{&quot;index&quot;:null}"/><path d="M6.77837,1277.74116v-161.03787h180.27661v161.03787z" data-paper-data="{&quot;index&quot;:null}"/><path d="M185.95554,1117.0775v-161.03787h180.27661v161.03787z" data-paper-data="{&quot;index&quot;:null}"/><path d="M-85.94544,958.50993v-161.03787h270.99741v161.03787z" data-paper-data="{&quot;index&quot;:null}"/><path d="M185.95554,800.5775v-161.03787h265.8592v161.03787z" data-paper-data="{&quot;index&quot;:null}"/><path d="M-90.63454,-2.57295v-161.03787h270.84717v161.03787z" data-paper-data="{&quot;index&quot;:null}"/><path d="M182.94653,-476.70329v-161.03787h180.27661v161.03787z" data-paper-data="{&quot;index&quot;:null}"/><path d="M180.15254,-159.5v-161.03787h269.34569v161.03787z" data-paper-data="{&quot;index&quot;:null}"/><path d="M-87.30722,-319.37238v-161.03787h270.84717v161.03787z" data-paper-data="{&quot;index&quot;:null}"/></g></g></svg>